<svg viewBox="0 0 512 512" xmlns="http://www.w3.org/2000/svg"><g fill="none" stroke-width="2"><path d="m481.27 141.86q-.13.24.12.76c23.54 48.58 30.22 102.94 20.13 156.15" stroke="#770300"/><path d="m501.52 298.77-170.26-195.74a1.28 1.22 74.9 0 0 -.66-.4q-.86-.21-.81-1.16.01-.1-.09-.14-.2-.09-.24.03-.05.15.02.3.04.11.06.24" stroke="#cd0400"/><path d="m329.54 101.9-203.99-.2a.35.34 0 0 0 -.35.34l.01 260.34q0 .48.39.76l.21.16" stroke="#770300"/><path d="m125.81 363.3 114.06 137.91" stroke="#cd0400"/><path d="m239.87 501.21q-52.51-2.8-98.44-25.37-64.04-31.45-103.12-92.23" stroke="#770300"/><path d="m501.52 298.77q-3.84 21.22-11.9 41.82c-14.13 36.07-36.54 69.14-65.48 95.14q-63.28 56.85-147.49 64.74-6.37.6-14.82 1.14-10.3.66-21.96-.4" stroke="#560100"/><path d="m125.81 363.3 190.03-.3a4.35 4.32 67.2 0 1 3.05 1.26l36.4 36.42a2.74 2.74 0 0 0 3.88 0l19.49-19.49a2.8 2.8 0 0 0 0-3.96q-15.7-15.68-31.57-31.57-2.06-2.06-4.27-.56" stroke="#560100"/><path d="m342.82 345.1-5.03-5.02" stroke="#9b4548"/><path d="m337.79 340.08q1.59-2.13.17-3.54-3.88-3.87-7.58-7.59a2.16 2.15 22.9 0 1 -.62-1.51l-.22-225.54" stroke="#560100"/><path d="m337.79 340.08q-2.34 1.64-3.89.03-4.38-4.55-8.98-8.9-.36-.35-.72 0l-4.31 4.23" stroke="#454448"/><path d="m319.89 335.44-10.72 10.71q-.38.37 0 .75l47.71 47.74a.5.5 0 0 0 .71 0l10.84-10.8" stroke="#384044"/><path d="m368.43 383.84 4.27-4.3a.48.48 0 0 0 0-.68q-14.85-14.88-29.92-29.93c-1.1-1.1-.86-2.67.04-3.83" stroke="#454448"/><path d="m226.29 323.67q1.42-2.11 3.63-1.08 17.04 7.97 34.19 4.35c17.24-3.63 31.99-15.92 38.11-32.08q9.74-25.74-5.19-49.14-1.05-1.64-3.37-4.19" stroke="#775400"/><path d="m293.66 241.53q-6.63-8.2-15.82-12.9c-24.62-12.57-54.7-4.74-69.38 19.11-8.89 14.43-10.17 32.18-3.79 47.79q5.12 12.55 14.91 19.85" stroke="#806508"/><path d="m219.58 315.38q1.93 2.87.66 4.42" stroke="#775400"/><path d="m220.24 319.8q-2.06 1.91-4.01.26c-35.88-30.22-23.61-87.98 21.59-100.69 19-5.34 39.76-.39 54.24 12.56q19.2 17.14 19.33 44.59.06 12.57-6.7 26.09-.22.42.12.76 4.06 4.12 9.26 9.22 3.07 3.01-.69 5.76-.82.6-.11 1.32l7.01 7a.55.55 0 0 0 .94-.39l-.01-215.56q0-.5-.49-.5l-186.71.05a.22.22 0 0 0 -.22.22v243.53q0 .23.23.23l174.43.01q.57 0 .15-.38-2.81-2.6-5.57-5.53c-1.83-1.96.08-4.19 1.75-5.33a.4.39-39.8 0 0 .06-.6l-7.28-7.29q-.53-.53-1 .04c-2.72 3.28-3.97 2.75-6.73.02q-4.14-4.09-8.33-8.31-.41-.41-.93-.16-27.25 13.28-53.17.69-2.27-1.1-1.11-3.74" stroke="#807e62"/><path d="m220.24 319.8 6.05 3.87" stroke="#f7d162"/><path d="m268.21 234.7q1.38 3.9-1.87 4.66" stroke="#807e62"/><path d="m266.34 239.36q-6.73-1.63-8.59-1.82-15.43-1.58-27.56 7.73" stroke="#807f6e"/><path d="m230.19 245.27q-4.49 3.73-7.62 8.32" stroke="#353535"/><path d="m222.57 253.59q-1.05.93-1.32 1.38-9.62 16-3.3 33.69.2.56.45.86" stroke="#807f6e"/><path d="m218.4 289.52 4.23 8.14" stroke="#353535"/><path d="m222.63 297.66q15.2 19.27 38.37 14.86 14.22-2.71 23.16-14.98" stroke="#807f6e"/><path d="m284.16 297.54 2.54-3.85" stroke="#353535"/><path d="m286.7 293.69q10.34-21.18-2.33-40.29" stroke="#807f6e"/><path d="m284.37 253.4-7.96-8.15" stroke="#353535"/><path d="m276.41 245.25-1.69-1.75" stroke="#807f6e"/><path d="m274.72 243.5q-.93-2.87 2.7-4.08" stroke="#807e62"/><path d="m296.81 274.22q-.02 11.6-4.74 20.55-12.41 23.51-40.41 24.13" stroke="#775400"/><path d="m293.66 241.53q.62 2.76 2.49 8.29 3.78 11.23.66 24.4" stroke="#f7b908"/><path d="m296.81 274.22q-1.57-22.79-19.39-34.8" stroke="#806508"/><path d="m277.42 239.42-9.21-4.72" stroke="#ffe36a"/><path d="m268.21 234.7q-18.21-6.29-34.14 1.82-9.44 4.81-15.12 12.47c-15.4 20.75-10.29 48.17 10.69 62.63q8.79 6.05 22.02 7.28" stroke="#806508"/><path d="m251.66 318.9q-15.15 3.43-32.08-3.52" stroke="#f7b908"/><g stroke="#b5b4a3"><path d="m284.16 297.54-61.53.12"/><path d="m276.41 245.25-46.22.02"/><path d="m284.37 253.4q-1.11.39-1.87.39-29.49.27-58.98.25-.3 0-.51-.14-.19-.11-.44-.31"/></g><path d="m274.72 243.5-8.38-4.14" stroke="#fffcd0"/><path d="m286.7 293.69q-.51-2.48-1.97-3.75-1.14-.99-2.96-.99-31.95-.03-62.27.03-.29 0-.55.15-.27.16-.55.39" stroke="#b5b4a3"/><path d="m286.16 323.91 6.68 6.69a.5.5 0 0 0 .71 0l15.13-15.12q.31-.31 0-.63l-6.74-6.76a.43.43 0 0 0 -.66.06q-6.23 9.03-15.06 15.04-.46.32-.06.72" stroke="#384044"/><path d="m309.0638 323.1101a.26.26 0 0 0 -.3676 0l-7.5661 7.5661a.26.26 0 0 0 0 .3676l7.5661 7.5661a.26.26 0 0 0 .3676 0l7.5661-7.5661a.26.26 0 0 0 0-.3676z" stroke="#807f6e"/><g stroke="#807e62"><path d="m178.24 161.01a4.03 4.03 0 0 0 -4.03-4.03h-6.22a4.03 4.03 0 0 0 -4.03 4.03v.52a4.03 4.03 0 0 0 4.03 4.03h6.22a4.03 4.03 0 0 0 4.03-4.03z"/><path d="m286.28 162.44a4.22 4.22 0 0 0 -4.22-4.22h-61.92a4.22 4.22 0 0 0 -4.22 4.22v.2a4.22 4.22 0 0 0 4.22 4.22h61.92a4.22 4.22 0 0 0 4.22-4.22z"/><path d="m178.24 205.01a4.03 4.03 0 0 0 -4.03-4.03h-6.22a4.03 4.03 0 0 0 -4.03 4.03v.52a4.03 4.03 0 0 0 4.03 4.03h6.22a4.03 4.03 0 0 0 4.03-4.03z"/><path d="m286.2701 206.1014a4.3 4.3 0 0 0 -4.2925-4.3075l-61.7399-.1078a4.3 4.3 0 0 0 -4.3075 4.2925l-.0003.14a4.3 4.3 0 0 0 4.2925 4.3075l61.7399.1078a4.3 4.3 0 0 0 4.3075-4.2925z"/><path d="m178.24 249.01a4.03 4.03 0 0 0 -4.03-4.03h-6.22a4.03 4.03 0 0 0 -4.03 4.03v.52a4.03 4.03 0 0 0 4.03 4.03h6.22a4.03 4.03 0 0 0 4.03-4.03z"/><path d="m178.24 293.01a4.03 4.03 0 0 0 -4.03-4.03h-6.22a4.03 4.03 0 0 0 -4.03 4.03v.52a4.03 4.03 0 0 0 4.03 4.03h6.22a4.03 4.03 0 0 0 4.03-4.03z"/></g><path d="m368.43 383.84-48.54-48.4" stroke="#7c848c"/></g><path d="m245.62 0h15.1q54.55 1.88 101.72 24.58 78.74 37.88 118.83 117.28-.13.24.12.76c23.54 48.58 30.22 102.94 20.13 156.15l-170.26-195.74a1.28 1.22 74.9 0 0 -.66-.4q-.86-.21-.81-1.16.01-.1-.09-.14-.2-.09-.24.03-.05.15.02.3.04.11.06.24l-203.99-.2a.35.34 0 0 0 -.35.34l.01 260.34q0 .48.39.76l.21.16 114.06 137.91q-52.51-2.8-98.44-25.37-64.04-31.45-103.12-92.23-35.71-57.31-38.31-125.24v-15.41q4.37-94.24 67.14-162.18 6.77-7.33 14.21-14.07 69.1-62.64 164.27-66.71z" fill="#ee0600"/><path d="m501.52 298.77q-3.84 21.22-11.9 41.82c-14.13 36.07-36.54 69.14-65.48 95.14q-63.28 56.85-147.49 64.74-6.37.6-14.82 1.14-10.3.66-21.96-.4l-114.06-137.91 190.03-.3a4.35 4.32 67.2 0 1 3.05 1.26l36.4 36.42a2.74 2.74 0 0 0 3.88 0l19.49-19.49a2.8 2.8 0 0 0 0-3.96q-15.7-15.68-31.57-31.57-2.06-2.06-4.27-.56l-5.03-5.02q1.59-2.13.17-3.54-3.88-3.87-7.58-7.59a2.16 2.15 22.9 0 1 -.62-1.51l-.22-225.54q-.02-.13-.06-.24-.07-.15-.02-.3.04-.12.24-.03.1.04.09.14-.05.95.81 1.16a1.28 1.22 74.9 0 1 .66.4z" fill="#ac0100"/><path d="m329.54 101.9.22 225.54a2.16 2.15 22.9 0 0 .62 1.51q3.7 3.72 7.58 7.59 1.42 1.41-.17 3.54-2.34 1.64-3.89.03-4.38-4.55-8.98-8.9-.36-.35-.72 0l-4.31 4.23-10.72 10.71q-.38.37 0 .75l47.71 47.74a.5.5 0 0 0 .71 0l10.84-10.8 4.27-4.3a.48.48 0 0 0 0-.68q-14.85-14.88-29.92-29.93c-1.1-1.1-.86-2.67.04-3.83q2.21-1.5 4.27.56 15.87 15.89 31.57 31.57a2.8 2.8 0 0 1 0 3.96l-19.49 19.49a2.74 2.74 0 0 1 -3.88 0l-36.4-36.42a4.35 4.32 67.2 0 0 -3.05-1.26l-190.03.3-.21-.16q-.39-.28-.39-.76l-.01-260.34a.35.34-0 0 1 .35-.34zm-103.25 221.77q1.42-2.11 3.63-1.08 17.04 7.97 34.19 4.35c17.24-3.63 31.99-15.92 38.11-32.08q9.74-25.74-5.19-49.14-1.05-1.64-3.37-4.19-6.63-8.2-15.82-12.9c-24.62-12.57-54.7-4.74-69.38 19.11-8.89 14.43-10.17 32.18-3.79 47.79q5.12 12.55 14.91 19.85 1.93 2.87.66 4.42-2.06 1.91-4.01.26c-35.88-30.22-23.61-87.98 21.59-100.69 19-5.34 39.76-.39 54.24 12.56q19.2 17.14 19.33 44.59.06 12.57-6.7 26.09-.22.42.12.76 4.06 4.12 9.26 9.22 3.07 3.01-.69 5.76-.82.6-.11 1.32l7.01 7a.55.55 0 0 0 .94-.39l-.01-215.56q0-.5-.49-.5l-186.71.05a.22.22 0 0 0 -.22.22v243.53q0 .23.23.23l174.43.01q.57 0 .15-.38-2.81-2.6-5.57-5.53c-1.83-1.96.08-4.19 1.75-5.33a.4.39-39.8 0 0 .06-.6l-7.28-7.29q-.53-.53-1 .04c-2.72 3.28-3.97 2.75-6.73.02q-4.14-4.09-8.33-8.31-.41-.41-.93-.16-27.25 13.28-53.17.69-2.27-1.1-1.11-3.74zm59.87.24 6.68 6.69a.5.5 0 0 0 .71 0l15.13-15.12q.31-.31 0-.63l-6.74-6.76a.43.43 0 0 0 -.66.06q-6.23 9.03-15.06 15.04-.46.32-.06.72zm22.9038-.7999a.26.26 0 0 0 -.3676 0l-7.5661 7.5661a.26.26 0 0 0 0 .3676l7.5661 7.5661a.26.26 0 0 0 .3676 0l7.5661-7.5661a.26.26 0 0 0 0-.3676z"/><path d="m220.24 319.8 6.05 3.87q-1.16 2.64 1.11 3.74 25.92 12.59 53.17-.69.52-.25.93.16 4.19 4.22 8.33 8.31c2.76 2.73 4.01 3.26 6.73-.02q.47-.57 1-.04l7.28 7.29a.4.39-39.8 0 1 -.06.6c-1.67 1.14-3.58 3.37-1.75 5.33q2.76 2.93 5.57 5.53.42.38-.15.38l-174.43-.01q-.23 0-.23-.23v-243.53a.22.22 0 0 1 .22-.22l186.71-.05q.49 0 .49.5l.01 215.56a.55.55 0 0 1 -.94.39l-7.01-7q-.71-.72.11-1.32 3.76-2.75.69-5.76-5.2-5.1-9.26-9.22-.34-.34-.12-.76 6.76-13.52 6.7-26.09-.13-27.45-19.33-44.59c-14.48-12.95-35.24-17.9-54.24-12.56-45.2 12.71-57.47 70.47-21.59 100.69q1.95 1.65 4.01-.26zm-42-158.79a4.03 4.03 0 0 0 -4.03-4.03h-6.22a4.03 4.03 0 0 0 -4.03 4.03v.52a4.03 4.03 0 0 0 4.03 4.03h6.22a4.03 4.03 0 0 0 4.03-4.03zm108.04 1.43a4.22 4.22 0 0 0 -4.22-4.22h-61.92a4.22 4.22 0 0 0 -4.22 4.22v.2a4.22 4.22 0 0 0 4.22 4.22h61.92a4.22 4.22 0 0 0 4.22-4.22zm-108.04 42.57a4.03 4.03 0 0 0 -4.03-4.03h-6.22a4.03 4.03 0 0 0 -4.03 4.03v.52a4.03 4.03 0 0 0 4.03 4.03h6.22a4.03 4.03 0 0 0 4.03-4.03zm108.0301 1.0914a4.3 4.3 0 0 0 -4.2925-4.3075l-61.7399-.1078a4.3 4.3 0 0 0 -4.3075 4.2925l-.0003.14a4.3 4.3 0 0 0 4.2925 4.3075l61.7399.1078a4.3 4.3 0 0 0 4.3075-4.2925zm-108.0301 42.9086a4.03 4.03 0 0 0 -4.03-4.03h-6.22a4.03 4.03 0 0 0 -4.03 4.03v.52a4.03 4.03 0 0 0 4.03 4.03h6.22a4.03 4.03 0 0 0 4.03-4.03zm0 44a4.03 4.03 0 0 0 -4.03-4.03h-6.22a4.03 4.03 0 0 0 -4.03 4.03v.52a4.03 4.03 0 0 0 4.03 4.03h6.22a4.03 4.03 0 0 0 4.03-4.03z" fill="#fffbc3"/><path d="m481.27 141.86q.04-.3.34.26 28.23 52.3 30.39 111.93v14.7q-1.94 54.37-24.82 100.94-21.79 44.33-56.76 75.97-69.14 62.54-164.17 66.34h-14.6c-86.68-2.9-164.44-48.09-209.88-121.8q-1.95-3.17-3.46-6.59 39.08 60.78 103.12 92.23 45.93 22.57 98.44 25.37 11.66 1.06 21.96.4 8.45-.54 14.82-1.14 84.21-7.89 147.49-64.74c28.94-26 51.35-59.07 65.48-95.14q8.06-20.6 11.9-41.82c10.09-53.21 3.41-107.57-20.13-156.15q-.25-.52-.12-.76z"/><rect height="8.58" rx="4.03" width="14.28" x="163.96" y="156.98"/><rect height="8.64" rx="4.22" width="70.36" x="215.92" y="158.22"/><rect height="8.58" rx="4.03" width="14.28" x="163.96" y="200.98"/><rect height="8.74" rx="4.3" transform="matrix(.99999848 .00174533 -.00174533 .99999848 251.1 206.11)" width="70.34" x="-35.17" y="-4.37"/><path d="m293.66 241.53q.62 2.76 2.49 8.29 3.78 11.23.66 24.4-1.57-22.79-19.39-34.8l-9.21-4.72q-18.21-6.29-34.14 1.82-9.44 4.81-15.12 12.47c-15.4 20.75-10.29 48.17 10.69 62.63q8.79 6.05 22.02 7.28-15.15 3.43-32.08-3.52-9.79-7.3-14.91-19.85c-6.38-15.61-5.1-33.36 3.79-47.79 14.68-23.85 44.76-31.68 69.38-19.11q9.19 4.7 15.82 12.9z" fill="#ffca10"/><path d="m268.21 234.7q1.38 3.9-1.87 4.66-6.73-1.63-8.59-1.82-15.43-1.58-27.56 7.73-4.49 3.73-7.62 8.32-1.05.93-1.32 1.38-9.62 16-3.3 33.69.2.56.45.86l4.23 8.14q15.2 19.27 38.37 14.86 14.22-2.71 23.16-14.98l2.54-3.85q10.34-21.18-2.33-40.29l-7.96-8.15-1.69-1.75q-.93-2.87 2.7-4.08 17.82 12.01 19.39 34.8-.02 11.6-4.74 20.55-12.41 23.51-40.41 24.13-13.23-1.23-22.02-7.28c-20.98-14.46-26.09-41.88-10.69-62.63q5.68-7.66 15.12-12.47 15.93-8.11 34.14-1.82z"/><path d="m268.21 234.7 9.21 4.72q-3.63 1.21-2.7 4.08l-8.38-4.14q3.25-.76 1.87-4.66z" fill="#fffbc3"/><path d="m266.34 239.36 8.38 4.14 1.69 1.75-46.22.02q12.13-9.31 27.56-7.73 1.86.19 8.59 1.82z" fill="#fffddc"/><path d="m293.66 241.53q2.32 2.55 3.37 4.19 14.93 23.4 5.19 49.14c-6.12 16.16-20.87 28.45-38.11 32.08q-17.15 3.62-34.19-4.35-2.21-1.03-3.63 1.08l-6.05-3.87q1.27-1.55-.66-4.42 16.93 6.95 32.08 3.52 28-.62 40.41-24.13 4.72-8.95 4.74-20.55 3.12-13.17-.66-24.4-1.87-5.53-2.49-8.29z" fill="#eea700"/><rect height="8.58" rx="4.03" width="14.28" x="163.96" y="244.98"/><path d="m276.41 245.25 7.96 8.15q-1.11.39-1.87.39-29.49.27-58.98.25-.3 0-.51-.14-.19-.11-.44-.31 3.13-4.59 7.62-8.32z" fill="#6a6a6a"/><path d="m284.37 253.4q12.67 19.11 2.33 40.29-.51-2.48-1.97-3.75-1.14-.99-2.96-.99-31.95-.03-62.27.03-.29 0-.55.15-.27.16-.55.39-.25-.3-.45-.86-6.32-17.69 3.3-33.69.27-.45 1.32-1.38.25.2.44.31.21.14.51.14 29.49.02 58.98-.25.76 0 1.87-.39z" fill="#fffddc"/><rect height="8.58" rx="4.03" width="14.28" x="163.96" y="288.98"/><path d="m286.7 293.69-2.54 3.85-61.53.12-4.23-8.14q.28-.23.55-.39.26-.15.55-.15 30.32-.06 62.27-.03 1.82 0 2.96.99 1.46 1.27 1.97 3.75z" fill="#6a6a6a"/><path d="m284.16 297.54q-8.94 12.27-23.16 14.98-23.17 4.41-38.37-14.86z" fill="#fffddc"/><path d="m286.16 323.91q-.4-.4.06-.72 8.83-6.01 15.06-15.04a.43.43 0 0 1 .66-.06l6.74 6.76q.31.32 0 .63l-15.13 15.12a.5.5 0 0 1 -.71 0z" fill="#6f8088"/><rect fill="#fffddc" height="11.22" rx=".26" transform="matrix(.70710678 -.70710678 .70710678 .70710678 308.88 330.86)" width="11.22" x="-5.61" y="-5.61"/><path d="m337.79 340.08 5.03 5.02c-.9 1.16-1.14 2.73-.04 3.83q15.07 15.05 29.92 29.93a.48.48 0 0 1 0 .68l-4.27 4.3-48.54-48.4 4.31-4.23q.36-.35.72 0 4.6 4.35 8.98 8.9 1.55 1.61 3.89-.03z" fill="#898890"/><path d="m319.89 335.44 48.54 48.4-10.84 10.8a.5.5 0 0 1 -.71 0l-47.71-47.74q-.38-.38 0-.75z" fill="#6f8088"/></svg>